<svg width="27" height="32" viewBox="0 0 27 32" fill="none" xmlns="http://www.w3.org/2000/svg">
<path d="M22.39 30.1223C20.6958 31.7646 18.8461 31.5053 17.0655 30.7274C15.1812 29.9322 13.4525 29.8976 11.4644 30.7274C8.97506 31.7992 7.66123 31.488 6.17453 30.1223C-2.26164 21.4269 -1.01696 8.18484 8.56017 7.7008C10.8939 7.82181 12.5189 8.98005 13.8846 9.08378C15.9245 8.66888 17.878 7.47606 20.0562 7.63165C22.6666 7.8391 24.6373 8.87633 25.9338 10.7434C20.5402 13.9761 21.8195 21.0811 26.7636 23.0692C25.7783 25.6622 24.499 28.238 22.3727 30.1396L22.39 30.1223V30.1223ZM13.7118 7.59707C13.4525 3.74202 16.5814 0.56117 20.1772 0.25C20.6785 4.71011 16.132 8.02926 13.7118 7.59707Z" fill="black"/>
</svg>
