<svg width="28" height="29" viewBox="0 0 28 29" fill="none" xmlns="http://www.w3.org/2000/svg">
<path d="M27.1225 13.5638H14.4406V17.3393H23.4437C22.9874 22.6085 18.6033 24.8627 14.4544 24.8627C9.15758 24.8627 4.51077 20.6861 4.51077 14.8085C4.51077 9.13827 8.9363 4.75423 14.4682 4.75423C18.7416 4.75423 21.2448 7.4787 21.2448 7.4787L23.8725 4.7404C23.8725 4.7404 20.498 0.978699 14.3299 0.978699C6.4746 0.978699 0.40332 7.617 0.40332 14.8085C0.40332 21.7925 6.11502 28.6383 14.5374 28.6383C21.9363 28.6383 27.3299 23.5627 27.3299 16.067C27.3299 14.4766 27.1225 13.5638 27.1225 13.5638Z" fill="black"/>
</svg>
