<svg width="31" height="32" viewBox="0 0 31 32" fill="none" xmlns="http://www.w3.org/2000/svg">
<path d="M0.212891 4.06186V27.6025L18.1211 31.3575V0.595764L0.212891 4.06186ZM9.23514 21.3069C3.54218 20.9398 4.12852 10.6781 9.36804 10.5966C14.981 10.9676 14.4304 21.225 9.23514 21.3069ZM9.31721 12.6058C6.318 12.814 6.45229 19.2392 9.27095 19.2908C12.2572 19.0983 12.0819 12.6557 9.31721 12.6058ZM21.1725 16.6981C21.4428 16.8969 21.7686 16.6981 21.7686 16.6981C21.4439 16.8969 30.6384 10.7896 30.6384 10.7896V21.8488C30.6384 23.0526 29.8678 23.5576 29.0012 23.5576H19.2522L19.2528 15.3799L21.1725 16.6981ZM19.2533 7.11784V13.135L21.3561 14.459C21.4115 14.4752 21.5317 14.4764 21.5872 14.459L30.6372 8.3575C30.6372 7.63544 29.9636 7.11784 29.5835 7.11784H19.2533Z" fill="black"/>
</svg>
